<?xml version="1.0" encoding="UTF-8" standalone="no"?>
<!-- Created with Inkscape (http://www.inkscape.org/) -->

<svg
   width="84.666687mm"
   height="9.1667967mm"
   viewBox="0 0 84.666687 9.1667967"
   version="1.1"
   id="svg1"
   xml:space="preserve"
   xmlns="http://www.w3.org/2000/svg"
   xmlns:svg="http://www.w3.org/2000/svg"><defs
     id="defs1" /><g
     id="layer1"
     transform="translate(-21.128124,-69.896346)"><path
       style="fill:currentColor;stroke-width:0.264584"
       d="m 77.035584,69.896383 c -0.149246,0.002 -0.304639,0.07737 -0.420473,0.243196 -0.213116,0.304018 -0.208763,0.358418 0.0474,0.614416 0.385919,0.386571 0.852505,0.211169 0.852505,-0.319378 0,-0.338552 -0.230526,-0.541424 -0.479389,-0.538234 m 2.70725,0.0051 c -0.44673,0 -0.676481,0.577925 -0.356481,0.897925 0.09215,0.09143 0.255998,0.167156 0.364799,0.167156 0.243195,0 0.532474,-0.275202 0.532474,-0.505606 0,-0.235612 -0.313589,-0.559383 -0.540792,-0.559383 m 22.854713,0 c -0.44608,0 -0.6752,0.577935 -0.35585,0.897935 0.0922,0.09143 0.25602,0.167145 0.36482,0.167145 0.2432,0 0.53311,-0.275201 0.53311,-0.505605 0,-0.235602 -0.31359,-0.559373 -0.54143,-0.559373 m -75.586981,0.0051 a 0.44800623,0.44800623 0 0 0 -0.322564,0.122887 c -0.179243,0.179245 -0.158683,0.570892 0.03967,0.769921 0.215768,0.215766 0.458267,0.212382 0.702748,-0.0092 0.241917,-0.218916 0.247674,-0.441634 0.01936,-0.694432 a 0.59520829,0.59520829 0 0 0 -0.43906,-0.189407 m 14.337489,0 a 0.44800623,0.44800623 0 0 0 -0.323217,0.122888 c -0.179242,0.179244 -0.158682,0.570891 0.03967,0.76992 0.215769,0.215767 0.458242,0.212383 0.703353,-0.0092 0.241413,-0.218916 0.247049,-0.441624 0.01693,-0.694432 a 0.59520829,0.59520829 0 0 0 -0.437754,-0.189396 m 9.818988,0 a 0.44800623,0.44800623 0 0 0 -0.322558,0.122877 c -0.179245,0.179244 -0.158685,0.570891 0.03965,0.769921 0.215766,0.215042 0.45889,0.212382 0.70337,-0.0092 0.241412,-0.218916 0.247701,-0.441624 0.01937,-0.694431 a 0.59520829,0.59520829 0 0 0 -0.439106,-0.189397 m -18.281192,0 c -0.158683,-0.0051 -0.317461,0.07155 -0.430086,0.231728 -0.213108,0.30464 -0.208754,0.358387 0.04741,0.615038 0.288023,0.288004 0.59842,0.268169 0.808988,-0.05321 0.161343,-0.246386 0.161343,-0.286077 0,-0.532474 -0.110061,-0.167634 -0.268162,-0.255366 -0.42624,-0.261125 m 9.884935,0 c -0.158685,-0.0051 -0.317462,0.07156 -0.429453,0.231739 -0.21384,0.304639 -0.209243,0.358387 0.04668,0.615037 0.288647,0.287994 0.598423,0.268159 0.808991,-0.05321 0.161335,-0.246397 0.161335,-0.286088 0,-0.532485 -0.110065,-0.167634 -0.268169,-0.255366 -0.426242,-0.261125 m -19.766055,6.32e-4 a 0.48640676,0.48640676 0 0 0 -0.424306,0.21964 c -0.172712,0.247048 -0.127477,0.50113 0.127961,0.706571 0.257931,0.20803 0.529287,0.157472 0.72002,-0.13304 0.161343,-0.246396 0.161343,-0.286088 0,-0.532484 -0.108852,-0.165209 -0.266252,-0.252797 -0.4237,-0.260493 m 24.156506,0 a 0.48640676,0.48640676 0 0 0 -0.424326,0.219639 c -0.172711,0.247049 -0.127229,0.501131 0.127964,0.706572 0.257272,0.208029 0.529283,0.157472 0.720015,-0.13304 0.161346,-0.246396 0.161346,-0.286088 0,-0.532484 -0.108851,-0.165209 -0.266272,-0.252798 -0.423694,-0.260493 m -25.567718,0.001 c -0.148522,0.002 -0.284805,0.06921 -0.354567,0.198346 -0.154812,0.289289 -0.137637,0.49794 0.05709,0.692495 0.215768,0.215042 0.458242,0.212382 0.702723,-0.0092 0.241918,-0.218916 0.247675,-0.441624 0.01936,-0.694431 a 0.57600802,0.57600802 0 0 0 -0.424329,-0.18746 m 9.884286,0 c -0.148523,0.002 -0.286087,0.06921 -0.355196,0.198346 -0.154812,0.289278 -0.137638,0.49794 0.05757,0.692494 0.215044,0.215767 0.457614,0.212383 0.702096,-0.0092 0.241917,-0.218916 0.247674,-0.441624 0.01936,-0.694432 a 0.57600802,0.57600802 0 0 0 -0.4237,-0.18747 m 46.913946,6.53e-4 q -0.178521,0.002 -0.362892,0.168358 c -0.241412,0.218916 -0.247671,0.441603 -0.01937,0.694411 0.09724,0.106915 0.261778,0.194473 0.364799,0.194473 0.44672,0 0.676501,-0.577925 0.357123,-0.897293 Q 78.56932,69.906434 78.391941,69.90837 m -25.812205,0.002 a 0.48000669,0.48000669 0 0 0 -0.414724,0.219395 c -0.218192,0.312325 -0.214318,0.364167 0.04984,0.628482 0.279045,0.279045 0.642559,0.229079 0.812181,-0.112725 C 53.217878,70.26152 52.90802,69.9204 52.579651,69.910176 m -26.884857,0.0071 a 0.51200713,0.51200713 0 0 0 -0.352003,0.150459 c -0.215043,0.215776 -0.211898,0.458248 0.0097,0.702728 0.316155,0.349458 0.888957,0.131827 0.888957,-0.337929 0,-0.312305 -0.271984,-0.520314 -0.546557,-0.515207 m 14.336208,0 a 0.51200713,0.51200713 0 0 0 -0.350746,0.150459 c -0.215768,0.215766 -0.212382,0.458238 0.0097,0.702728 0.316178,0.349458 0.888329,0.131827 0.888329,-0.337929 0,-0.312305 -0.271356,-0.520314 -0.545929,-0.515208 m 9.820309,0 a 0.51200713,0.51200713 0 0 0 -0.352006,0.15046 c -0.215043,0.215766 -0.211903,0.458238 0.0092,0.702718 0.316178,0.349468 0.888354,0.131837 0.888354,-0.33792 0,-0.312314 -0.271379,-0.520313 -0.545929,-0.515207 m -25.520426,6.53e-4 a 0.51200713,0.51200713 0 0 0 -0.323218,0.138839 c -0.262405,0.236815 -0.275202,0.454426 -0.04039,0.713615 0.354567,0.391045 0.931869,0.1299 0.871686,-0.394236 -0.03386,-0.293132 -0.264316,-0.469135 -0.508145,-0.458249 m 9.883657,0 a 0.51200713,0.51200713 0 0 0 -0.323217,0.13885 c -0.262407,0.236815 -0.274573,0.454426 -0.04039,0.713614 0.354567,0.391036 0.931869,0.12989 0.871686,-0.394246 -0.03386,-0.293121 -0.264317,-0.469124 -0.508145,-0.458238 m 4.453179,0 a 0.51200713,0.51200713 0 0 0 -0.323217,0.138849 c -0.262406,0.236815 -0.274549,0.454416 -0.04039,0.713605 0.354568,0.391045 0.931217,0.1299 0.871711,-0.394236 -0.03386,-0.293122 -0.26497,-0.469125 -0.508169,-0.458239 m 9.819649,0 a 0.51200713,0.51200713 0 0 0 -0.323221,0.13884 c -0.2624,0.236815 -0.275202,0.454426 -0.04037,0.713614 0.354565,0.391046 0.931868,0.12989 0.871709,-0.394236 -0.03384,-0.293131 -0.264336,-0.469134 -0.508164,-0.458248 m 7.140559,0 a 0.51200713,0.51200713 0 0 0 -0.322559,0.138849 c -0.262389,0.236815 -0.275202,0.454416 -0.04036,0.713605 0.353912,0.391045 0.931185,0.1299 0.871025,-0.394236 -0.03333,-0.293122 -0.264315,-0.469125 -0.508163,-0.458239 m -33.999819,1.351699 c -0.389134,-6.52e-4 -0.689299,0.481295 -0.323194,0.885133 0.227138,0.251523 0.411508,0.246396 0.67585,-0.01692 0.255995,-0.25665 0.270073,-0.460806 0.04548,-0.684819 -0.127963,-0.127963 -0.268164,-0.182394 -0.398084,-0.182394 m 80.966249,0.0071 a 0.51200713,0.51200713 0 0 0 -0.29697,0.08317 c -0.2752,0.172711 -0.27136,0.62464 0.007,0.820499 0.30464,0.21383 0.3328,0.212382 0.62593,-0.02569 0.39233,-0.317432 0.0786,-0.862729 -0.33665,-0.87809 m -26.938593,0.0071 c -0.465934,0 -0.643222,0.500499 -0.307861,0.870425 0.09653,0.107404 0.240689,0.194483 0.320001,0.194483 0.176105,0 0.568985,-0.38016 0.568985,-0.550404 0,-0.212382 -0.34114,-0.514575 -0.581125,-0.514575 m 5.431737,0 c -0.465914,0 -0.642569,0.500499 -0.307208,0.870424 0.09602,0.107404 0.239964,0.194483 0.318746,0.194483 0.176584,0 0.569607,-0.380159 0.569607,-0.550403 0,-0.212382 -0.34114,-0.514586 -0.581145,-0.514586 m -42.345597,0.0051 a 0.62080864,0.62080864 0 0 0 -0.446728,0.161825 c -0.223993,0.224726 -0.211173,0.428811 0.04621,0.684798 0.255996,0.256019 0.460154,0.270106 0.6848,0.04546 0.198353,-0.198356 0.218187,-0.590727 0.03895,-0.76992 a 0.4736066,0.4736066 0 0 0 -0.323194,-0.121675 m 5.431768,0 c -0.161835,-0.0051 -0.33474,0.05056 -0.446109,0.161825 -0.223992,0.224716 -0.211169,0.428831 0.04475,0.684829 0.257302,0.255988 0.460806,0.270065 0.684819,0.04546 0.19908,-0.198356 0.219395,-0.590727 0.04036,-0.769921 A 0.48000669,0.48000669 0 0 0 44.17382,71.2907 m -14.013648,0.04791 c -0.308486,0 -0.384634,0.04933 -0.474256,0.304008 -0.09216,0.262409 -0.07233,0.332802 0.141991,0.505605 0.317437,0.257935 0.464653,0.254744 0.707853,-0.01447 0.154812,-0.171498 0.174646,-0.276476 0.09409,-0.505605 -0.08442,-0.239955 -0.165696,-0.289931 -0.469756,-0.289931 m 5.431759,0 c -0.307858,0 -0.384659,0.04933 -0.474257,0.304017 -0.09216,0.2624 -0.07233,0.332793 0.141992,0.505606 0.318089,0.257924 0.464652,0.254734 0.707852,-0.01448 0.155537,-0.171508 0.174646,-0.276486 0.09409,-0.505605 -0.08442,-0.239964 -0.165696,-0.289941 -0.469757,-0.289941 m 14.272836,0 c -0.30784,0 -0.384002,0.04933 -0.474231,0.304018 -0.09215,0.262409 -0.07237,0.332792 0.141989,0.505605 0.318064,0.257925 0.464629,0.254734 0.707825,-0.01447 0.155535,-0.171498 0.174647,-0.276486 0.09408,-0.505605 -0.0844,-0.239955 -0.165219,-0.289931 -0.469757,-0.289931 M 38.64645,72.575222 c -0.08974,-6.52e-4 -0.169567,0.06412 -0.305293,0.200283 -0.256649,0.256019 -0.270098,0.460175 -0.04621,0.68483 0.198352,0.198346 0.590727,0.218182 0.769921,0.03894 0.203432,-0.203432 0.148522,-0.590727 -0.108852,-0.771225 -0.142717,-0.09989 -0.230524,-0.152396 -0.309744,-0.153599 m 5.431733,0 c -0.08949,-6.32e-4 -0.169082,0.06411 -0.305271,0.200283 -0.256019,0.255998 -0.270096,0.460154 -0.04546,0.684799 0.198346,0.198356 0.590717,0.218192 0.769941,0.03894 0.202943,-0.203433 0.148523,-0.590727 -0.108852,-0.771205 -0.143446,-0.09989 -0.231004,-0.152386 -0.310418,-0.153599 m 11.52913,0 c -0.09021,-6.32e-4 -0.169561,0.06411 -0.305924,0.200283 -0.256018,0.255998 -0.269443,0.460154 -0.04475,0.684799 0.198356,0.198356 0.590075,0.218192 0.769289,0.03894 0.203432,-0.203433 0.148522,-0.590727 -0.108852,-0.771205 -0.142713,-0.09989 -0.230526,-0.152386 -0.309766,-0.153599 m 3.068196,0 c -0.08949,-6.52e-4 -0.169082,0.06411 -0.305292,0.200283 -0.255998,0.255998 -0.270075,0.460185 -0.04617,0.684829 0.198356,0.198347 0.590727,0.218182 0.769951,0.03894 0.203433,-0.203433 0.149246,-0.590727 -0.108851,-0.771236 -0.142723,-0.09989 -0.230282,-0.152386 -0.309767,-0.153599 m 9.889407,0 c -0.08949,-6.32e-4 -0.169561,0.06411 -0.305292,0.200283 -0.25662,0.255998 -0.270074,0.460155 -0.04617,0.684809 0.198356,0.198346 0.590758,0.218182 0.769951,0.03894 0.203433,-0.202944 0.148523,-0.590728 -0.108851,-0.771206 -0.142723,-0.09989 -0.230281,-0.152386 -0.309767,-0.153599 m 32.643013,0 c -0.0895,-6.52e-4 -0.16908,0.06412 -0.30529,0.200294 -0.25599,0.256018 -0.27007,0.460175 -0.0455,0.684819 0.19836,0.198356 0.59073,0.218192 0.76995,0.03894 0.20295,-0.202953 0.14853,-0.590727 -0.10886,-0.771236 -0.14343,-0.09989 -0.23051,-0.152385 -0.31042,-0.153598 M 30.160045,72.5876 c -0.07233,0 -0.143443,0.04036 -0.266881,0.121674 -0.285434,0.186258 -0.353285,0.572156 -0.138363,0.786566 0.07039,0.07043 0.252174,0.127964 0.404493,0.127964 0.561289,0 0.73792,-0.606088 0.266253,-0.915233 -0.123608,-0.08053 -0.194483,-0.121674 -0.266253,-0.121674 m 19.703957,0 c -0.07115,0 -0.142712,0.04036 -0.266252,0.121674 -0.284804,0.186257 -0.353281,0.572176 -0.138116,0.786566 0.07043,0.07043 0.252166,0.127963 0.404491,0.127963 0.561921,0 0.737914,-0.606088 0.266232,-0.915202 -0.122888,-0.08052 -0.194484,-0.121674 -0.266232,-0.121674 m 11.597586,0.0071 c -0.07115,0 -0.142713,0.04036 -0.266252,0.121674 -0.285426,0.186981 -0.352628,0.572146 -0.138116,0.787188 0.164485,0.164485 0.644496,0.164485 0.809613,0 0.214318,-0.215042 0.146586,-0.600298 -0.13884,-0.787188 -0.122887,-0.08124 -0.194483,-0.121674 -0.266232,-0.121674 m 28.190465,0.002 c -0.176095,-6.22e-4 -0.351996,0.112001 -0.4557,0.339214 -0.08827,0.193994 -0.07818,0.303355 0.04352,0.476789 0.08633,0.12409 0.272001,0.225205 0.411534,0.225205 0.358407,0 0.604172,-0.376337 0.456954,-0.698896 -0.103776,-0.227141 -0.279677,-0.341772 -0.456302,-0.342404 m -26.949513,0.0071 c -0.335983,0.0092 -0.570892,0.414724 -0.339204,0.769289 0.208509,0.317442 0.626576,0.328328 0.840966,0.02181 0.185045,-0.263031 0.0844,-0.547213 -0.257282,-0.730249 a 0.48000669,0.48000669 0 0 0 -0.24448,-0.06075 m 24.139221,0 c -0.336013,0.01019 -0.570891,0.414734 -0.339214,0.769299 0.208754,0.317462 0.626577,0.328318 0.841619,0.02181 0.184331,-0.263041 0.08389,-0.547213 -0.257925,-0.73026 a 0.48640676,0.48640676 0 0 0 -0.24448,-0.06075 m 9.895819,0.002 a 0.38400535,0.38400535 0 0 0 -0.170774,0.04791 c -0.300817,0.161345 -0.367368,0.430085 -0.179245,0.71811 0.177797,0.270696 0.568333,0.332792 0.777617,0.1236 0.32,-0.32 -0.0314,-0.909443 -0.427527,-0.889607 m 1.418901,10e-4 h -0.03771 a 0.40960569,0.40960569 0 0 0 -0.172711,0.04984 0.54656762,0.54656762 0 0 0 -0.229078,0.748801 c 0.130624,0.24448 0.625271,0.297596 0.833281,0.08949 0.312325,-0.312335 -0.01019,-0.874257 -0.393615,-0.888334 m -76.513041,0 c -0.380836,0.01937 -0.698925,0.577283 -0.387876,0.888303 0.07039,0.07043 0.260496,0.127964 0.422418,0.127964 0.533133,0 0.665594,-0.707204 0.181178,-0.966412 a 0.40960569,0.40960569 0 0 0 -0.215042,-0.04984 m 49.687746,0 c -0.381465,0.01937 -0.698896,0.577303 -0.388508,0.888333 0.07043,0.07043 0.260503,0.127963 0.42242,0.127963 0.533136,0 0.665615,-0.707203 0.181181,-0.966412 A 0.40960569,0.40960569 0 0 0 71.331703,72.6054 m 4.355893,0 c -0.382076,0.01937 -0.699538,0.577303 -0.388487,0.888354 0.07043,0.07043 0.260503,0.127964 0.42242,0.127964 0.533106,0 0.665595,-0.707204 0.181181,-0.966413 a 0.40960569,0.40960569 0 0 0 -0.215043,-0.04984 m 9.894514,0 c -0.382066,0.01937 -0.699528,0.577303 -0.388477,0.888353 0.07043,0.07043 0.259841,0.127964 0.42242,0.127964 0.533126,0 0.665595,-0.707203 0.180447,-0.966412 a 0.40960569,0.40960569 0 0 0 -0.215043,-0.04984 m 2.69508,0 a 0.40320562,0.40320562 0 0 0 -0.215042,0.04984 0.54656762,0.54656762 0 0 0 -0.229802,0.748801 c 0.130623,0.24451 0.625292,0.297626 0.833301,0.08949 0.31102,-0.31105 -0.0071,-0.868497 -0.388508,-0.888333 m 5.804884,0 c -0.382076,0.01937 -0.699508,0.577283 -0.388487,0.888333 0.07043,0.07043 0.260493,0.127964 0.422419,0.127964 0.533137,0 0.665596,-0.707203 0.181182,-0.966412 a 0.40960569,0.40960569 0 0 0 -0.215043,-0.04984 m 1.384327,0 c -0.381444,0.01937 -0.699528,0.577282 -0.388477,0.888333 0.07043,0.07043 0.260473,0.127953 0.422389,0.127953 0.533137,0 0.665615,-0.707193 0.181181,-0.966412 A 0.40960569,0.40960569 0 0 0 95.46589,72.60557 m 7.12394,0 c -0.38144,0.01937 -0.69952,0.577273 -0.38847,0.888324 0.0704,0.07043 0.26049,0.127963 0.42239,0.127963 0.53313,0 0.66561,-0.707224 0.18118,-0.966432 a 0.40960569,0.40960569 0 0 0 -0.21505,-0.04984 m 1.38498,0 c -0.38206,0.01937 -0.69953,0.577282 -0.38847,0.888333 0.0704,0.07043 0.25984,0.127963 0.42242,0.127963 0.53247,0 0.66559,-0.707223 0.18117,-0.966412 a 0.40960569,0.40960569 0 0 0 -0.21505,-0.04984 m 1.28576,6.32e-4 a 0.38400535,0.38400535 0 0 0 -0.18553,0.04597 c -0.40447,0.216245 -0.37246,0.711698 0.0622,0.958084 0.25474,0.14465 0.60161,-0.09602 0.6445,-0.447352 0.0353,-0.293131 -0.24705,-0.557447 -0.52096,-0.556815 m -45.200005,10e-4 c -0.385286,0.01692 -0.705287,0.572165 -0.391677,0.886417 0.177797,0.178031 0.672006,0.160132 0.829448,-0.03068 0.176105,-0.21118 0.05372,-0.65793 -0.220119,-0.804496 a 0.4160058,0.4160058 0 0 0 -0.217703,-0.05127 m 9.889417,0 c -0.385918,0.01692 -0.705949,0.572176 -0.391677,0.886427 0.177786,0.178032 0.672006,0.160133 0.829448,-0.03068 0.176105,-0.211179 0.05372,-0.65793 -0.220119,-0.804495 A 0.4160058,0.4160058 0 0 0 69.95019,72.60711 m -38.451741,1.333779 c -0.390391,0 -0.641282,0.654729 -0.358389,0.936974 0.28287,0.282235 0.936974,0.0319 0.936974,-0.358417 0,-0.197144 -0.381442,-0.578557 -0.578585,-0.578557 m 9.88494,0 c -0.390393,0 -0.641284,0.654729 -0.35839,0.936974 0.28287,0.282235 0.936967,0.0319 0.936967,-0.358417 0,-0.197144 -0.381435,-0.578557 -0.578577,-0.578557 m 20.029083,0 c -0.390414,0 -0.641285,0.654729 -0.358408,0.936974 0.268811,0.268791 0.936975,0.0071 0.936975,-0.368019 0,-0.189397 -0.385919,-0.569608 -0.578567,-0.569608 m 14.245309,0 c -0.390393,0 -0.641284,0.65473 -0.358387,0.936975 0.26879,0.268811 0.936964,0.0071 0.936964,-0.367999 0,-0.189397 -0.385939,-0.569608 -0.578577,-0.569608 m 14.005977,0 c -0.228589,0 -0.551066,0.317442 -0.551066,0.541455 0,0.103775 0.07502,0.263663 0.167156,0.355828 0.09215,0.09215 0.255988,0.167625 0.364798,0.167625 0.243196,0 0.533127,-0.275222 0.533127,-0.505626 0,-0.222779 -0.309114,-0.559353 -0.513923,-0.559353 m 12.96145,0 c -0.22858,0 -0.55105,0.317432 -0.55105,0.541454 0,0.103776 0.075,0.263664 0.16714,0.355829 0.0922,0.09215 0.25602,0.167624 0.36483,0.167624 0.2432,0 0.53313,-0.275222 0.53313,-0.505625 0,-0.222789 -0.30913,-0.559353 -0.51394,-0.559353 m -18.365694,0.0071 c -0.148523,6.32e-4 -0.30464,0.07696 -0.422389,0.245112 -0.213116,0.30466 -0.209243,0.358407 0.0474,0.61569 0.359672,0.359692 0.851853,0.185044 0.851853,-0.302081 0,-0.348806 -0.228589,-0.559373 -0.47682,-0.558089 m -62.666455,0.002 c -0.101838,0 -0.192063,0.05249 -0.297625,0.158196 -0.223267,0.222779 -0.212624,0.647666 0.01936,0.782714 0.616972,0.359049 1.221149,-0.378876 0.641936,-0.78465 -0.149732,-0.104255 -0.262406,-0.156749 -0.363518,-0.15626 m 4.14213,0 c -0.116593,-0.0071 -0.235603,0.04933 -0.364799,0.166422 -0.241409,0.218182 -0.249609,0.499214 -0.02177,0.727691 0.459524,0.459543 1.171222,-0.205369 0.734726,-0.687367 -0.118536,-0.13103 -0.232225,-0.199486 -0.348165,-0.20602 m 14.336184,0 c -0.115867,-0.0071 -0.234878,0.04933 -0.364799,0.166422 -0.240684,0.218192 -0.248957,0.499193 -0.02177,0.727691 0.459524,0.459522 1.171223,-0.20537 0.734751,-0.687368 -0.118528,-0.131103 -0.23246,-0.199559 -0.34881,-0.206093 m 9.820281,0 c -0.116588,-0.0071 -0.235602,0.04933 -0.364799,0.166422 -0.241402,0.218192 -0.249607,0.499224 -0.02171,0.727691 0.459522,0.459543 1.171221,-0.205369 0.734724,-0.687367 -0.11829,-0.131103 -0.232218,-0.19956 -0.348163,-0.206093 m 17.336562,0.01692 c -0.373127,10e-4 -0.653456,0.409597 -0.412166,0.778249 0.21069,0.321274 0.628482,0.340488 0.839702,0.03965 0.186992,-0.267516 0.115875,-0.600961 -0.159888,-0.748811 a 0.57600802,0.57600802 0 0 0 -0.267506,-0.06921 m -3.124533,0.0051 a 0.48640676,0.48640676 0 0 0 -0.306555,0.131827 c -0.256019,0.231738 -0.264968,0.449299 -0.02762,0.711678 0.211169,0.233665 0.652792,0.215766 0.80896,-0.03384 0.245764,-0.391668 -0.102318,-0.82688 -0.474883,-0.809613 m 28.591744,0 a 0.48640676,0.48640676 0 0 0 -0.305924,0.131837 c -0.255998,0.231728 -0.264948,0.449289 -0.02803,0.711668 0.211903,0.233675 0.654108,0.215766 0.809623,-0.03384 0.245764,-0.391678 -0.102328,-0.82689 -0.475516,-0.809623 m -68.325453,0.002 c -0.170778,0.002 -0.350069,0.09795 -0.465911,0.304639 -0.145862,0.261125 -0.141992,0.305302 0.03967,0.505605 0.356478,0.394267 0.91201,0.227865 0.91201,-0.272001 0,-0.344311 -0.234878,-0.541434 -0.485117,-0.537611 m 9.883657,0 c -0.171502,0.002 -0.350092,0.09795 -0.465282,0.304659 -0.145861,0.261125 -0.142717,0.305271 0.03895,0.505605 0.356478,0.394247 0.91201,0.227866 0.91201,-0.272001 0,-0.344341 -0.234879,-0.541454 -0.48577,-0.537611 m 4.45318,0 c -0.171502,0.002 -0.350092,0.09795 -0.465934,0.304639 -0.145862,0.261125 -0.141992,0.305292 0.03967,0.505605 0.356478,0.394236 0.91201,0.227866 0.91201,-0.272011 0,-0.344311 -0.234878,-0.541424 -0.485771,-0.537601 m 16.960865,0 c -0.171497,0.002 -0.350059,0.09795 -0.465903,0.30466 -0.145862,0.261125 -0.142723,0.305271 0.03965,0.505605 0.355849,0.394236 0.912002,0.227865 0.912002,-0.272001 0,-0.344342 -0.234879,-0.541455 -0.48577,-0.537612 m 3.068858,0 c -0.171508,0.002 -0.350752,0.09795 -0.465944,0.304639 -0.145852,0.261126 -0.142712,0.305292 0.03894,0.505606 0.356481,0.394236 0.912012,0.227865 0.912012,-0.272012 0,-0.34431 -0.234879,-0.541423 -0.485118,-0.537601 m 13.956021,0 a 0.54400756,0.54400756 0 0 0 -0.500478,0.299533 c -0.08705,0.162548 -0.07349,0.275202 0.05565,0.472325 0.310398,0.473599 0.910728,0.281603 0.910728,-0.290563 0,-0.300165 -0.223992,-0.473609 -0.465934,-0.481295 m -49.712041,0 c -0.385941,-0.0051 -0.659207,0.437771 -0.396826,0.810897 0.08442,0.121674 0.268816,0.220119 0.40834,0.220119 0.537607,0 0.701441,-0.755213 0.211172,-0.978573 a 0.57600802,0.57600802 0 0 0 -0.222783,-0.05178 m 9.883656,0 c -0.38594,-0.0051 -0.658578,0.43775 -0.396825,0.810876 0.08442,0.121674 0.268816,0.220119 0.408339,0.220119 0.537608,0 0.701442,-0.755212 0.211173,-0.978573 a 0.57600802,0.57600802 0 0 0 -0.222784,-0.05178 m 9.884942,0 c -0.385918,-0.0051 -0.658582,0.437781 -0.396804,0.810897 0.08511,0.121674 0.26879,0.220129 0.408312,0.220129 0.537612,0 0.701444,-0.755223 0.21118,-0.978583 a 0.57600802,0.57600802 0 0 0 -0.22279,-0.05178 m 24.50082,1.342719 c -0.149247,0 -0.305292,0.07665 -0.42241,0.24448 -0.213839,0.304639 -0.209242,0.358418 0.04668,0.61569 0.359692,0.359702 0.851853,0.185055 0.851853,-0.302071 0,-0.348816 -0.228589,-0.559383 -0.476168,-0.558099 m 5.431757,0 c -0.149246,0 -0.304639,0.07665 -0.422399,0.24448 -0.21383,0.304639 -0.209232,0.358418 0.04668,0.61569 0.360324,0.359702 0.852474,0.185055 0.852474,-0.302071 0,-0.348816 -0.229068,-0.559383 -0.476799,-0.558099 m 24.134726,0 c -0.149012,0 -0.304639,0.07665 -0.422399,0.24448 -0.21383,0.304639 -0.209233,0.358418 0.0474,0.61569 0.359692,0.359702 0.851221,0.185055 0.851221,-0.302071 0,-0.348816 -0.227866,-0.559383 -0.476168,-0.558099 m -25.579253,0.0092 a 0.43520607,0.43520607 0 0 0 -0.294416,0.126026 c -0.191333,0.192068 -0.155535,0.697602 0.05881,0.822395 0.307208,0.179245 0.544013,0.12989 0.728344,-0.151672 0.161824,-0.246417 0.161824,-0.285456 0,-0.532474 a 0.57600802,0.57600802 0 0 0 -0.492813,-0.264347 m 12.875701,0 a 0.43520607,0.43520607 0 0 0 -0.294405,0.126027 c -0.192057,0.192067 -0.155536,0.697601 0.0583,0.822415 0.30784,0.179245 0.544023,0.1299 0.728975,-0.151662 0.161336,-0.246417 0.161336,-0.285436 0,-0.532484 a 0.57600802,0.57600802 0 0 0 -0.492782,-0.264336 m 11.259035,0 a 0.43520607,0.43520607 0 0 0 -0.294416,0.126016 c -0.192057,0.192068 -0.155535,0.697622 0.05881,0.822415 0.307208,0.179245 0.544023,0.1299 0.728976,-0.151662 0.161335,-0.246417 0.161335,-0.285456 0,-0.532505 A 0.57600802,0.57600802 0 0 0 95.3719,75.332147 m -73.793029,0.002 a 0.44800623,0.44800623 0 0 0 -0.323194,0.122887 c -0.179242,0.179235 -0.159406,0.571514 0.03967,0.769921 0.215768,0.215767 0.458242,0.212617 0.702723,-0.01019 0.241942,-0.218905 0.247699,-0.44094 0.01936,-0.693748 a 0.59520829,0.59520829 0 0 0 -0.439037,-0.190121 m 42.566976,0.002 q -0.177787,0.002 -0.36223,0.168358 c -0.241922,0.218916 -0.247681,0.441624 -0.01937,0.694422 0.09724,0.106924 0.261757,0.194483 0.365451,0.194483 0.44673,0 0.675849,-0.577925 0.356481,-0.897925 q -0.163272,-0.160622 -0.340488,-0.159409 m 4.457028,0 q -0.177798,0.002 -0.362241,0.168358 c -0.241401,0.218906 -0.24769,0.441593 -0.01937,0.694401 0.09724,0.106915 0.261125,0.194483 0.364798,0.194483 0.446731,0 0.676482,-0.577935 0.357134,-0.897935 Q 68.779285,75.333594 68.60208,75.334797 m -7.267952,0.0051 a 0.42880596,0.42880596 0 0 0 -0.255366,0.09846 c -0.215042,0.179245 -0.194483,0.706571 0.03262,0.838428 0.287994,0.167635 0.507511,0.136434 0.725775,-0.104978 0.18166,-0.201017 0.185533,-0.245112 0.03965,-0.505605 -0.121674,-0.217458 -0.340488,-0.336645 -0.542738,-0.326391 m 14.244677,0 a 0.42880596,0.42880596 0 0 0 -0.254713,0.09847 c -0.215043,0.179244 -0.194483,0.706571 0.0319,0.838428 0.287994,0.167624 0.508164,0.136423 0.725775,-0.104988 0.182384,-0.201007 0.185533,-0.245102 0.03965,-0.505606 -0.121675,-0.217458 -0.340489,-0.336635 -0.542739,-0.326381 m -36.945794,0.002 c -0.102321,0 -0.183113,0.04403 -0.289933,0.140786 -0.282241,0.256019 -0.275201,0.535695 0.01936,0.74242 0.287998,0.20222 0.411533,0.207296 0.657296,0.02762 0.294408,-0.215042 0.190128,-0.737945 -0.172228,-0.864023 a 0.64000891,0.64000891 0 0 0 -0.215769,-0.04668 m 55.450369,10e-4 a 0.51200713,0.51200713 0 0 0 -0.351996,0.15046 c -0.215043,0.215766 -0.211903,0.458238 0.0092,0.702718 0.316157,0.349468 0.888323,0.131837 0.888323,-0.337267 0,-0.312967 -0.271349,-0.520966 -0.545929,-0.51587 m -58.506397,0 a 0.51200713,0.51200713 0 0 0 -0.352027,0.15046 c -0.215043,0.215776 -0.211898,0.458248 0.0097,0.702728 0.316179,0.349458 0.888353,0.131827 0.888353,-0.337277 0,-0.312957 -0.271381,-0.520966 -0.545929,-0.515207 m 14.272185,0 a 0.51200713,0.51200713 0 0 0 -0.350722,0.150459 c -0.215776,0.215766 -0.212382,0.458238 0.0092,0.702728 0.316178,0.349438 0.888323,0.131827 0.888323,-0.337297 0,-0.312967 -0.271349,-0.520967 -0.545898,-0.515208 m 20.099456,0 a 0.51200713,0.51200713 0 0 0 -0.352006,0.15046 c -0.215043,0.215766 -0.211893,0.458238 0.0092,0.702718 0.316188,0.349468 0.888354,0.131837 0.888354,-0.337267 0,-0.312967 -0.271379,-0.520966 -0.545929,-0.515207 m -14.322124,0.001 a 0.51200713,0.51200713 0 0 0 -0.322569,0.13885 c -0.262399,0.236815 -0.275202,0.454415 -0.04036,0.712982 0.353943,0.391668 0.931215,0.130624 0.871056,-0.394266 -0.03333,-0.293101 -0.264316,-0.469104 -0.508164,-0.457586 m 3.074608,0.002 a 0.48640676,0.48640676 0 0 0 -0.328981,0.1357 c -0.262399,0.237549 -0.274549,0.454406 -0.04036,0.713615 0.218192,0.241412 0.499224,0.249607 0.727691,0.02181 0.358408,-0.359702 0.0319,-0.871688 -0.358387,-0.871056 m 30.941218,0 c -0.385286,-0.01692 -0.706561,0.460807 -0.367357,0.835207 0.228589,0.252176 0.508164,0.267526 0.734072,0.04159 0.226653,-0.226663 0.211169,-0.505606 -0.04087,-0.734103 A 0.51200713,0.51200713 0 0 0 89.6403,75.348018 m 12.96149,0 c -0.38594,-0.01692 -0.70657,0.460807 -0.36674,0.835208 0.22787,0.252145 0.50751,0.267506 0.73344,0.04159 0.22665,-0.226662 0.21118,-0.505605 -0.0409,-0.734102 a 0.51200713,0.51200713 0 0 0 -0.32641,-0.142713 m -72.431086,1.363206 a 0.51840722,0.51840722 0 0 0 -0.488987,0.358418 c -0.09143,0.260473 -0.0716,0.331508 0.142717,0.505605 0.136911,0.110789 0.281587,0.201496 0.320001,0.201496 0.203431,0 0.544646,-0.362892 0.544646,-0.578556 0,-0.320001 -0.258559,-0.493466 -0.518401,-0.486432 m 54.025691,0 c -0.259841,-0.0071 -0.518397,0.166431 -0.518397,0.486432 0,0.136423 0.106191,0.321906 0.236814,0.413439 0.298881,0.209233 0.326412,0.20803 0.627209,-0.03649 0.214308,-0.172721 0.234878,-0.24449 0.143436,-0.505605 a 0.51840722,0.51840722 0 0 0 -0.48896,-0.357786 m 5.431757,0 c -0.259841,-0.0071 -0.518397,0.166422 -0.518397,0.486422 0,0.136424 0.106191,0.321907 0.236815,0.41344 0.29888,0.209243 0.326401,0.20803 0.627198,-0.03649 0.215042,-0.172711 0.234878,-0.24448 0.143446,-0.505605 a 0.51840722,0.51840722 0 0 0 -0.48899,-0.357786 m 12.961458,0 c -0.25984,-0.0071 -0.5184,0.166422 -0.5184,0.486422 0,0.136423 0.10619,0.321916 0.23682,0.41344 0.29888,0.209242 0.32641,0.208029 0.62719,-0.03649 0.21506,-0.172711 0.23488,-0.24448 0.14345,-0.505606 a 0.51840722,0.51840722 0 0 0 -0.48899,-0.357785 m -43.920605,0 c -0.487686,0 -0.661773,0.492813 -0.302081,0.852504 0.259219,0.259209 0.403216,0.266885 0.657298,0.03649 0.393614,-0.355849 0.180458,-0.888333 -0.355217,-0.888333 m 2.737962,0 c -0.49794,0 -0.664331,0.607373 -0.247049,0.899841 0.1299,0.09092 0.273928,0.165698 0.319379,0.165698 0.128687,0 0.508795,-0.411533 0.508795,-0.550403 0,-0.213106 -0.34112,-0.514575 -0.581125,-0.514575 m 2.693795,0 c -0.487675,0 -0.661773,0.492802 -0.30207,0.852505 0.259188,0.259188 0.403205,0.266874 0.657287,0.03649 0.393584,-0.355849 0.180458,-0.888334 -0.355217,-0.888334 m 3.143716,0 c -0.497287,0 -0.682892,0.611195 -0.284151,0.9325 0.09092,0.07308 0.218192,0.13304 0.284151,0.13304 0.167635,0 0.438413,-0.234145 0.509448,-0.440309 0.08756,-0.254092 -0.215042,-0.62467 -0.509448,-0.62467 m 8.407819,0 c -0.49794,0 -0.664984,0.607372 -0.247701,0.899872 0.130623,0.09092 0.273927,0.165688 0.32,0.165688 0.127963,0 0.508826,-0.411503 0.508826,-0.550404 0,-0.213106 -0.341141,-0.514555 -0.581125,-0.514555 m 5.431736,0 c -0.497919,0 -0.664963,0.607373 -0.247028,0.899842 0.1299,0.09092 0.273928,0.165698 0.319348,0.165698 0.127963,0 0.508826,-0.411534 0.508826,-0.550404 0,-0.213106 -0.34114,-0.514575 -0.581146,-0.514575 m 17.040883,0 c -0.487676,0 -0.661773,0.492813 -0.302071,0.852505 0.255998,0.255998 0.310399,0.260473 0.615038,0.0474 0.448004,-0.313609 0.24448,-0.899209 -0.313589,-0.899209 m -59.386439,0.0051 a 0.62080864,0.62080864 0 0 0 -0.446728,0.161834 c -0.223993,0.223992 -0.211173,0.428801 0.04621,0.684799 0.25856,0.259209 0.402559,0.266874 0.657297,0.03649 0.222057,-0.201017 0.254713,-0.572797 0.06652,-0.760971 -0.07813,-0.07818 -0.197143,-0.11829 -0.323193,-0.122153 m 16.960237,0 a 0.62080864,0.62080864 0 0 0 -0.446098,0.161824 c -0.223992,0.223992 -0.211169,0.428801 0.04546,0.684799 0.259219,0.259209 0.403216,0.266884 0.657298,0.03649 0.222789,-0.201007 0.255998,-0.572798 0.06727,-0.760971 -0.07818,-0.07818 -0.197877,-0.11828 -0.323221,-0.122154 m -34.103496,0.002 a 0.44800623,0.44800623 0 0 0 -0.3424,0.120217 c -0.203431,0.203432 -0.148523,0.591379 0.108853,0.771857 0.130621,0.09092 0.274572,0.165698 0.32,0.165698 0.140781,0 0.508822,-0.417945 0.508822,-0.577935 0,-0.268811 -0.309768,-0.471693 -0.595227,-0.48001 m 66.673585,0.0092 h -0.03771 a 0.40960569,0.40960569 0 0 0 -0.172711,0.04984 0.54656762,0.54656762 0 0 0 -0.229078,0.748801 c 0.130623,0.24448 0.625292,0.297606 0.833301,0.08949 0.312304,-0.312315 -0.0092,-0.873604 -0.393614,-0.888333 m -52.680424,0.03649 c -0.307834,0 -0.384634,0.04933 -0.474232,0.304007 -0.09216,0.261757 -0.07233,0.332793 0.141992,0.505605 0.136911,0.111268 0.286716,0.20222 0.332797,0.20222 0.04475,0 0.194481,-0.09092 0.331514,-0.201496 0.215042,-0.174158 0.234878,-0.24448 0.142717,-0.505605 -0.08951,-0.255988 -0.166423,-0.304639 -0.474885,-0.304639 m 14.272851,0 c -0.30785,0 -0.384002,0.04933 -0.474251,0.304017 -0.09215,0.261747 -0.07237,0.332793 0.141989,0.505605 0.137637,0.111267 0.28672,0.20222 0.332792,0.20222 0.04475,0 0.194484,-0.09092 0.331539,-0.201496 0.215053,-0.174168 0.234878,-0.24448 0.142723,-0.505605 -0.08949,-0.255998 -0.166422,-0.30464 -0.474883,-0.30464 m -25.555575,1.23714 c -0.0895,0 -0.168357,0.06411 -0.30464,0.200283 -0.255995,0.256619 -0.270074,0.460806 -0.04621,0.684798 0.198352,0.198357 0.590727,0.218916 0.769945,0.03965 0.203433,-0.202943 0.149007,-0.590727 -0.108852,-0.771205 -0.142716,-0.100401 -0.230282,-0.152396 -0.309768,-0.153599 m 9.884286,0 c -0.08951,0 -0.169084,0.06411 -0.305269,0.200283 -0.256649,0.25663 -0.270098,0.460807 -0.04621,0.684799 0.198352,0.198357 0.590727,0.218916 0.769922,0.03965 0.203431,-0.202943 0.148522,-0.590727 -0.108853,-0.771205 -0.142717,-0.100402 -0.230524,-0.152386 -0.309768,-0.153599 m 4.453204,0 c -0.08974,0 -0.169566,0.06411 -0.305293,0.200293 -0.256648,0.25662 -0.270073,0.460797 -0.04621,0.684799 0.198353,0.198346 0.590728,0.218906 0.769922,0.03965 0.203432,-0.202944 0.148523,-0.590717 -0.108852,-0.771195 -0.142717,-0.100402 -0.230524,-0.152396 -0.309744,-0.153609 m 16.960217,0 c -0.08949,0 -0.169082,0.06411 -0.305271,0.200293 -0.256018,0.25662 -0.269443,0.460807 -0.04475,0.684799 0.198346,0.198346 0.590075,0.218916 0.769289,0.03965 0.203432,-0.202954 0.148522,-0.590758 -0.108852,-0.771226 -0.142713,-0.100401 -0.230526,-0.152396 -0.309766,-0.153609 m -32.613581,0.01213 c -0.176582,0 -0.352003,0.111991 -0.455678,0.339204 -0.08829,0.193993 -0.07885,0.303355 0.04281,0.47682 0.08708,0.12409 0.272008,0.225205 0.412186,0.225205 0.358388,0 0.603522,-0.375685 0.45696,-0.698254 -0.103772,-0.227865 -0.28033,-0.342425 -0.456331,-0.343047 m 9.883656,0 c -0.176581,0 -0.352632,0.111991 -0.455678,0.339204 -0.08902,0.193994 -0.07885,0.303355 0.04281,0.4768 0.08708,0.12409 0.272009,0.225195 0.412186,0.225195 0.35776,0 0.603523,-0.375685 0.45696,-0.698244 -0.103773,-0.227865 -0.28033,-0.342425 -0.456331,-0.343057 m 44.142684,0.002 q -0.05759,0 -0.1236,0.02181 c -0.369936,0.117077 -0.49473,0.449299 -0.288005,0.765446 0.213106,0.324475 0.649603,0.310399 0.872973,-0.02803 0.134976,-0.20489 0.124813,-0.257934 -0.100402,-0.519692 -0.142712,-0.166421 -0.24448,-0.236804 -0.360945,-0.238741 m 9.894513,0 q -0.05759,0 -0.12409,0.02171 c -0.369905,0.117077 -0.494719,0.449269 -0.287342,0.765457 0.213106,0.325127 0.64895,0.310388 0.872963,-0.02803 0.134497,-0.204891 0.12409,-0.257935 -0.101115,-0.519682 -0.142713,-0.166432 -0.243848,-0.236815 -0.360976,-0.238752 m 9.88431,0 q -0.05759,0 -0.123601,0.02181 c -0.369926,0.117077 -0.494719,0.449268 -0.287372,0.765446 0.212382,0.325127 0.64897,0.310398 0.87234,-0.02834 0.134976,-0.20488 0.124814,-0.257904 -0.100401,-0.519682 -0.142713,-0.166422 -0.24448,-0.236815 -0.360976,-0.238751 m -71.090255,0.002 c -0.07112,0 -0.142718,0.04087 -0.266253,0.121664 -0.284804,0.186992 -0.353284,0.572829 -0.138362,0.787219 0.164487,0.165219 0.6445,0.165219 0.809616,0 0.214317,-0.214319 0.147312,-0.600329 -0.138847,-0.787219 -0.122881,-0.08052 -0.194482,-0.121664 -0.266251,-0.121664 m 24.156482,0 c -0.07115,0 -0.142712,0.04087 -0.266222,0.121664 -0.284813,0.186992 -0.35329,0.572829 -0.138125,0.787219 0.164485,0.165219 0.644475,0.165219 0.809592,0 0.214319,-0.214319 0.14731,-0.600329 -0.13885,-0.787219 -0.122877,-0.08052 -0.194483,-0.121664 -0.266221,-0.121664 m 20.098824,0 c -0.07115,0 -0.142713,0.04087 -0.266253,0.121664 -0.285435,0.186992 -0.352628,0.572829 -0.138115,0.787219 0.202219,0.202953 0.702086,0.155535 0.82691,-0.07818 0.174158,-0.325127 0.131103,-0.520966 -0.15627,-0.709129 -0.122877,-0.08052 -0.194473,-0.121675 -0.266252,-0.121675 m 35.329772,0.0051 a 0.38400535,0.38400535 0 0 0 -0.12288,0.01937 c -0.35457,0.112001 -0.47936,0.448667 -0.27842,0.755212 0.18239,0.27777 0.56961,0.343057 0.78212,0.130624 0.30141,-0.300817 0.007,-0.899862 -0.38082,-0.904969 m -43.866196,0.0051 A 0.44800623,0.44800623 0 0 0 61.1362,78.156066 c -0.238752,0.216246 -0.279045,0.584337 -0.08562,0.778239 0.20803,0.207306 0.702729,0.154812 0.833301,-0.08949 0.21117,-0.394899 -0.111277,-0.821131 -0.459522,-0.810877 m 9.890039,0 a 0.44800623,0.44800623 0 0 0 -0.287994,0.122154 c -0.238752,0.216255 -0.279055,0.584316 -0.08562,0.778248 0.20803,0.207296 0.702718,0.154812 0.833291,-0.08949 0.211179,-0.394888 -0.111267,-0.82113 -0.459522,-0.810896 m 14.249784,0 a 0.44800623,0.44800623 0 0 0 -0.288004,0.122153 c -0.238742,0.216255 -0.279045,0.584316 -0.08511,0.778249 0.207306,0.207295 0.702096,0.154811 0.832669,-0.08949 0.211169,-0.394889 -0.111267,-0.821131 -0.459553,-0.810897 m 9.88431,0 a 0.44800623,0.44800623 0 0 0 -0.287362,0.122153 c -0.238752,0.216256 -0.279055,0.584316 -0.08562,0.778249 0.20803,0.207296 0.702719,0.154812 0.833291,-0.08949 0.21118,-0.394889 -0.111267,-0.821131 -0.460174,-0.810897 m 8.508936,0 a 0.44800623,0.44800623 0 0 0 -0.28801,0.122153 c -0.23874,0.216256 -0.27904,0.584316 -0.0851,0.778249 0.20731,0.207296 0.70207,0.154812 0.83265,-0.08949 0.21117,-0.394888 -0.11128,-0.821131 -0.45953,-0.810897 m -82.315381,0.01213 c -0.381442,0.01937 -0.699531,0.576029 -0.388481,0.887701 0.07039,0.07043 0.260471,0.127964 0.422394,0.127964 0.533133,0 0.665618,-0.707224 0.181178,-0.966412 a 0.40960569,0.40960569 0 0 0 -0.215043,-0.04984 m 5.431758,0 c -0.381441,0.01937 -0.699531,0.575998 -0.388504,0.887681 0.07039,0.07043 0.260495,0.127963 0.422418,0.127963 0.533133,0 0.665617,-0.707203 0.181178,-0.966412 a 0.40960569,0.40960569 0 0 0 -0.215043,-0.04984 m 4.451898,0 c -0.381441,0.01937 -0.699531,0.576019 -0.38848,0.887702 0.07039,0.07043 0.26047,0.127963 0.422393,0.127963 0.533133,0 0.665618,-0.707224 0.181178,-0.966412 a 0.40960569,0.40960569 0 0 0 -0.215042,-0.04984 m 27.177967,0 a 0.40320562,0.40320562 0 0 0 -0.215042,0.04933 0.54656762,0.54656762 0 0 0 -0.229792,0.748832 c 0.130614,0.24448 0.625292,0.297606 0.832639,0.08949 0.310999,-0.311051 -0.0071,-0.868498 -0.387896,-0.888334 m 5.431757,0 a 0.40320562,0.40320562 0 0 0 -0.215043,0.04933 0.54656762,0.54656762 0 0 0 -0.229802,0.748812 c 0.131113,0.2445 0.625292,0.297626 0.833302,0.08949 0.310398,-0.31105 -0.0071,-0.868487 -0.388477,-0.888353 m 4.457017,0 a 0.40320562,0.40320562 0 0 0 -0.215042,0.04933 0.54656762,0.54656762 0 0 0 -0.229069,0.748811 c 0.130624,0.24448 0.625272,0.297596 0.832649,0.08949 0.311041,-0.311051 -0.0071,-0.868488 -0.388487,-0.888323 m 9.788282,0 a 0.40320562,0.40320562 0 0 0 -0.215766,0.04933 0.54656762,0.54656762 0 0 0 -0.229079,0.748831 c 0.130624,0.24448 0.625292,0.297596 0.832669,0.08949 0.311031,-0.31105 -0.0071,-0.868487 -0.387855,-0.888323 m 1.351699,0 c -0.382086,0.01937 -0.699528,0.575999 -0.388477,0.887671 0.07043,0.07043 0.260473,0.127963 0.422399,0.127963 0.533127,0 0.665616,-0.707203 0.181171,-0.966412 a 0.40960569,0.40960569 0 0 0 -0.215042,-0.04984 m 9.894544,0 c -0.382096,0.01937 -0.699528,0.576029 -0.388477,0.887702 0.07033,0.07043 0.259841,0.127963 0.422389,0.127963 0.532505,0 0.665616,-0.707223 0.180458,-0.966432 a 0.40960569,0.40960569 0 0 0 -0.215043,-0.04984 m 3.100844,0 a 0.40320562,0.40320562 0 0 0 -0.215042,0.04933 0.54656762,0.54656762 0 0 0 -0.229792,0.748811 c 0.130624,0.24448 0.625292,0.297596 0.832639,0.0895 0.31105,-0.31102 -0.0071,-0.868487 -0.387845,-0.888323 m 1.351698,0 c -0.382076,0.01937 -0.699538,0.576019 -0.388487,0.887691 0.07043,0.07043 0.260493,0.127963 0.42242,0.127963 0.533136,0 0.665595,-0.707223 0.181181,-0.966412 a 0.40960569,0.40960569 0 0 0 -0.21506,-0.04985"
       id="path1" /></g></svg>
